<?xml version="1.0" encoding="UTF-8" standalone="no"?>
<!-- Created with Inkscape (http://www.inkscape.org/) -->

<svg
   xmlns:dc="http://purl.org/dc/elements/1.1/"
   xmlns:cc="http://creativecommons.org/ns#"
   xmlns:rdf="http://www.w3.org/1999/02/22-rdf-syntax-ns#"
   xmlns:svg="http://www.w3.org/2000/svg"
   xmlns="http://www.w3.org/2000/svg"
   xmlns:xlink="http://www.w3.org/1999/xlink"
   xmlns:sodipodi="http://sodipodi.sourceforge.net/DTD/sodipodi-0.dtd"
   xmlns:inkscape="http://www.inkscape.org/namespaces/inkscape"
   width="210mm"
   height="297mm"
   viewBox="0 0 744.09448819 1052.3622047"
   id="svg2"
   version="1.1"
   inkscape:version="0.91 r13725"
   sodipodi:docname="icons.svg">
  <defs
     id="defs4" />
  <sodipodi:namedview
     id="base"
     pagecolor="#ffffff"
     bordercolor="#666666"
     borderopacity="1.0"
     inkscape:pageopacity="0.0"
     inkscape:pageshadow="2"
     inkscape:zoom="0.7"
     inkscape:cx="565.16841"
     inkscape:cy="-243.51292"
     inkscape:document-units="px"
     inkscape:current-layer="layer1"
     showgrid="true"
     inkscape:window-width="1920"
     inkscape:window-height="1056"
     inkscape:window-x="0"
     inkscape:window-y="24"
     inkscape:window-maximized="1">
    <inkscape:grid
       type="xygrid"
       id="grid4155" />
  </sodipodi:namedview>
  <metadata
     id="metadata7">
    <rdf:RDF>
      <cc:Work
         rdf:about="">
        <dc:format>image/svg+xml</dc:format>
        <dc:type
           rdf:resource="http://purl.org/dc/dcmitype/StillImage" />
        <dc:title></dc:title>
      </cc:Work>
    </rdf:RDF>
  </metadata>
  <g
     inkscape:label="1. réteg"
     inkscape:groupmode="layer"
     id="layer1">
    <rect
       style="fill:#000000;fill-opacity:1;stroke:none;stroke-width:2;stroke-miterlimit:4;stroke-dasharray:none;stroke-dashoffset:0;stroke-opacity:1"
       id="rect4157"
       width="100"
       height="100"
       x="0"
       y="952.36218"
       inkscape:tile-cx="50"
       inkscape:tile-cy="1002.3622"
       inkscape:tile-w="100"
       inkscape:tile-h="100"
       inkscape:tile-x0="0"
       inkscape:tile-y0="952.36218" />
    <use
       x="0"
       y="0"
       inkscape:tiled-clone-of="#rect4157"
       xlink:href="#rect4157"
       id="use4249"
       style="fill-opacity:1;fill:#d34fe3" />
    <use
       x="0"
       y="0"
       inkscape:tiled-clone-of="#rect4157"
       xlink:href="#rect4157"
       transform="translate(110,0)"
       id="use4251"
       style="stroke:#df0000;stroke-opacity:1" />
    <use
       x="0"
       y="0"
       inkscape:tiled-clone-of="#rect4157"
       xlink:href="#rect4157"
       transform="translate(220,0)"
       id="use4253" />
    <use
       x="0"
       y="0"
       inkscape:tiled-clone-of="#rect4157"
       xlink:href="#rect4157"
       transform="translate(330,0)"
       id="use4255" />
    <use
       x="0"
       y="0"
       inkscape:tiled-clone-of="#rect4157"
       xlink:href="#rect4157"
       transform="translate(440,0)"
       id="use4257" />
    <use
       x="0"
       y="0"
       inkscape:tiled-clone-of="#rect4157"
       xlink:href="#rect4157"
       transform="translate(550,0)"
       id="use4259" />
    <use
       x="0"
       y="0"
       inkscape:tiled-clone-of="#rect4157"
       xlink:href="#rect4157"
       transform="translate(660,0)"
       id="use4261" />
    <use
       x="0"
       y="0"
       inkscape:tiled-clone-of="#rect4157"
       xlink:href="#rect4157"
       transform="translate(770,0)"
       id="use4263" />
    <use
       x="0"
       y="0"
       inkscape:tiled-clone-of="#rect4157"
       xlink:href="#rect4157"
       transform="translate(880,0)"
       id="use4265"
       style="fill:#314fe3;fill-opacity:1" />
    <use
       x="0"
       y="0"
       inkscape:tiled-clone-of="#rect4157"
       xlink:href="#rect4157"
       transform="translate(990,0)"
       id="use4267" />
    <use
       x="0"
       y="0"
       inkscape:tiled-clone-of="#rect4157"
       xlink:href="#rect4157"
       transform="translate(1100,0)"
       id="use4269" />
    <use
       x="0"
       y="0"
       inkscape:tiled-clone-of="#rect4157"
       xlink:href="#rect4157"
       transform="translate(1210,0)"
       id="use4271" />
    <use
       x="0"
       y="0"
       inkscape:tiled-clone-of="#rect4157"
       xlink:href="#rect4157"
       transform="translate(1320,0)"
       id="use4273" />
    <use
       x="0"
       y="0"
       inkscape:tiled-clone-of="#rect4157"
       xlink:href="#rect4157"
       transform="translate(1430,0)"
       id="use4275" />
    <use
       x="0"
       y="0"
       inkscape:tiled-clone-of="#rect4157"
       xlink:href="#rect4157"
       transform="translate(1540,0)"
       id="use4277" />
    <rect
       style="fill:#ffffff;fill-opacity:1;stroke:none;stroke-width:2;stroke-miterlimit:4;stroke-dasharray:none;stroke-dashoffset:0;stroke-opacity:1"
       id="rect4289"
       width="70"
       height="19.999977"
       x="15"
       y="992.36218" />
    <path
       style="fill:#ffffff;fill-opacity:1;fill-rule:evenodd;stroke:none;stroke-width:1px;stroke-linecap:butt;stroke-linejoin:miter;stroke-opacity:1"
       d="m 130,962.3622 60,0 0,10 -25,0 0,60 25,0 0,10 -60,0 0,-10 25,0 0,-60 -25,0"
       id="path4306"
       inkscape:connector-curvature="0"
       sodipodi:nodetypes="cccccccccccc" />
    <path
       style="fill:#ffffff;fill-rule:evenodd;stroke:none;stroke-width:1px;stroke-linecap:butt;stroke-linejoin:miter;stroke-opacity:1;fill-opacity:1"
       d="m 245,962.3622 50,0 0,10 -40,0 0,60 40,0 0,10 -50,0 0,-80 z"
       id="path4308"
       inkscape:connector-curvature="0" />
    <path
       style="fill:#ffffff;fill-rule:evenodd;stroke:none;stroke-width:1px;stroke-linecap:butt;stroke-linejoin:miter;stroke-opacity:1;fill-opacity:1"
       d="m 345,967.3622 0,70 70,0 0,-10 -60,0 0,-60 z"
       id="path4310"
       inkscape:connector-curvature="0" />
    <path
       style="fill:#ffffff;fill-rule:evenodd;stroke:none;stroke-width:1px;stroke-linecap:butt;stroke-linejoin:miter;stroke-opacity:1;fill-opacity:1"
       d="m 460,962.3622 60,0 0,10 -25,0 0,70 -10,0 0,-70 -25,0 0,-10"
       id="path4312"
       inkscape:connector-curvature="0" />
    <path
       style="fill:#ffffff;fill-rule:evenodd;stroke:none;stroke-width:1px;stroke-linecap:butt;stroke-linejoin:miter;stroke-opacity:1;fill-opacity:1"
       d="M 565 967.36133 L 565 1037.3613 L 635 1037.3613 L 635 967.36133 L 565 967.36133 z M 575 977.36133 L 625 977.36133 L 625 1027.3613 L 575 1027.3613 L 575 977.36133 z "
       id="path4314" />
    <path
       style="fill:#ffffff;fill-opacity:1;stroke:none;stroke-width:2;stroke-miterlimit:4;stroke-dasharray:none;stroke-dashoffset:0;stroke-opacity:1"
       d="M 710 962.36133 A 40 40 0 0 0 670 1002.3613 A 40 40 0 0 0 710 1042.3613 A 40 40 0 0 0 750 1002.3613 A 40 40 0 0 0 710 962.36133 z M 710 972.36133 A 30 30 0 0 1 740 1002.3613 A 30 30 0 0 1 710 1032.3613 A 30 30 0 0 1 680 1002.3613 A 30 30 0 0 1 710 972.36133 z "
       id="path4319" />
    <circle
       style="fill:#ffffff;fill-opacity:1;stroke:none;stroke-width:2;stroke-miterlimit:4;stroke-dasharray:none;stroke-dashoffset:0;stroke-opacity:1"
       id="path4324"
       cx="820"
       cy="1002.3622"
       r="30" />
    <path
       style="fill:#ffffff;fill-rule:evenodd;stroke:none;stroke-width:1px;stroke-linecap:butt;stroke-linejoin:miter;stroke-opacity:1;fill-opacity:1"
       d="m 895,962.3622 40,0 0,70 30,0 0,10 -40,0 0,-70 -30,0 0,-10"
       id="path4326"
       inkscape:connector-curvature="0" />
  </g>
</svg>
